<svg width="12" height="12" viewBox="0 0 12 12" fill="none" xmlns="http://www.w3.org/2000/svg">
<path d="M11.1682 0.388968C10.6496 -0.129656 9.81124 -0.129656 9.29261 0.388968L8.5798 1.09941L10.8982 3.41783L11.611 2.70502C12.1297 2.18639 12.1297 1.34807 11.611 0.829444L11.1682 0.388968ZM4.08269 5.5989C3.93823 5.74335 3.82693 5.92096 3.76299 6.11752L3.06202 8.22044C2.99334 8.4241 3.04781 8.64907 3.19937 8.803C3.35093 8.95693 3.5759 9.00903 3.78193 8.94035L5.88485 8.23938C6.07904 8.17544 6.25665 8.06414 6.40347 7.91968L10.3654 3.9554L8.0446 1.63461L4.08269 5.5989ZM2.27342 1.3907C1.0183 1.3907 0 2.409 0 3.66412V9.72658C0 10.9817 1.0183 12 2.27342 12H8.33588C9.591 12 10.6093 10.9817 10.6093 9.72658V7.45316C10.6093 7.03399 10.2707 6.69535 9.8515 6.69535C9.43234 6.69535 9.09369 7.03399 9.09369 7.45316V9.72658C9.09369 10.1457 8.75504 10.4844 8.33588 10.4844H2.27342C1.85426 10.4844 1.51562 10.1457 1.51562 9.72658V3.66412C1.51562 3.24496 1.85426 2.90631 2.27342 2.90631H4.54685C4.96601 2.90631 5.30465 2.56766 5.30465 2.1485C5.30465 1.72934 4.96601 1.3907 4.54685 1.3907H2.27342Z" fill="white"/>
</svg>
